Coordinates
version=1
nRows=11
nColumns=40
inDegrees=yes

Units are S.I. units (second, meters, Newtons, ...)
Angles are in degrees.

endheader
time	pelvis_tilt	pelvis_list	pelvis_rotation	pelvis_tx	pelvis_ty	pelvis_tz	hip_flexion_r	hip_adduction_r	hip_rotation_r	knee_angle_r	knee_angle_r_beta	ankle_angle_r	subtalar_angle_r	mtp_angle_r	hip_flexion_l	hip_adduction_l	hip_rotation_l	knee_angle_l	knee_angle_l_beta	ankle_angle_l	subtalar_angle_l	mtp_angle_l	lumbar_extension	lumbar_bending	lumbar_rotation	arm_flex_r	arm_add_r	arm_rot_r	elbow_flex_r	pro_sup_r	wrist_flex_r	wrist_dev_r	arm_flex_l	arm_add_l	arm_rot_l	elbow_flex_l	pro_sup_l	wrist_flex_l	wrist_dev_l
     51.74500000	     -6.43481795	     -8.91524892	      1.71804201	      0.94209865	      0.91094744	      0.48005785	     -1.57045820	      7.63327379	    -17.15547761	      6.91151995	      6.91151995	     16.97942280	      9.01332551	     -3.11418403	     40.56207003	    -11.99919395	      3.13343498	     26.34792906	     26.34792906	      7.25521711	    -11.28090035	     13.41418369	    -10.40207351	      6.52025150	      6.56515350	     41.71921573	    -15.25290310	      1.45136666	     98.73454888	     44.15951870	      0.00000000	      0.00000000	    -18.84553943	     -7.41215721	      5.89092275	     26.32403166	     44.66233382	      0.00000000	      0.00000000
     51.75607143	     -6.53408042	     -8.89719264	      1.36122052	      0.94470633	      0.90886046	      0.47840770	     -2.10448599	      7.43353330	    -16.74107907	      7.16076409	      7.16076409	     17.59805139	      8.98158994	     -3.19403741	     39.58788302	    -12.10848259	      2.21894129	     24.97939604	     24.97939604	      6.58554977	    -11.20099921	     13.79050247	     -9.98886357	      6.53073556	      6.59175509	     43.33430757	    -14.75324916	      1.49765934	    100.17534535	     44.12609723	      0.00000000	      0.00000000	    -20.11904941	     -7.22297982	      6.20222126	     26.01164786	     44.59095805	      0.00000000	      0.00000000
     51.76714286	     -6.55829407	     -8.83615464	      1.04559750	      0.94736289	      0.90690166	      0.47658481	     -2.50334241	      7.12481319	    -16.13599307	      7.87503760	      7.87503760	     18.79922598	      8.57213903	     -1.83049299	     38.61770495	    -12.08220017	      1.57239662	     23.98834366	     23.98834366	      4.64794845	    -12.06286111	     11.29339262	     -9.74476973	      6.46879094	      6.57419918	     44.36018824	    -14.66421401	      2.37855457	    103.30071927	     44.07800942	      0.00000000	      0.00000000	    -21.97584557	     -7.64583434	      8.31403732	     27.53406808	     44.23700794	      0.00000000	      0.00000000
     51.77821429	     -6.59486181	     -8.69460441	      0.79099931	      0.94975367	      0.90516253	      0.47451017	     -2.82998351	      6.69424963	    -15.73163742	      8.59886094	      8.59886094	     19.45908932	      8.25097305	     -1.91218751	     38.03078213	    -12.00551379	      0.85409155	     23.89764523	     23.89764523	      3.81636370	    -12.37489224	     11.12591271	     -9.47765615	      6.33666383	      6.30808217	     45.75499830	    -13.91398124	      2.47207298	    104.90062920	     44.04257053	      0.00000000	      0.00000000	    -23.03036672	     -7.43292757	      8.71491734	     27.20828561	     44.16845117	      0.00000000	      0.00000000
     51.78928571	     -6.75813207	     -8.50024918	      0.56762784	      0.95200172	      0.90347896	      0.47218953	     -2.82349626	      6.16544061	    -15.15405930	      9.66440500	      9.66440500	     20.14841852	      7.44113674	     -1.55427935	     37.72019976	    -11.81048809	      0.32352847	     24.18721573	     24.18721573	      2.56200273	    -13.20932569	      9.62399937	     -9.05318420	      6.18074506	      6.07190207	     46.60195692	    -13.62613453	      2.95717315	    107.06575625	     43.99306626	      0.00000000	      0.00000000	    -23.97754081	     -7.38720192	      9.37525052	     27.27524878	     44.07721684	      0.00000000	      0.00000000
     51.80035714	     -6.66327850	     -8.32986677	      0.41939266	      0.95410133	      0.90240028	      0.46982938	     -3.01466109	      5.66441020	    -14.55610687	     10.85902076	     10.85902076	     21.00172141	      6.57851911	     -0.88319838	     37.25948327	    -11.64571169	     -0.00363041	     24.75040213	     24.75040213	      0.95491402	    -14.13744678	      6.51265650	     -9.08225888	      5.96864119	      6.22497734	     47.52212677	    -13.73959028	      3.16907013	    109.33928768	     43.99696477	      0.00000000	      0.00000000	    -24.51243496	     -7.53210043	     10.73043956	     27.42484474	     43.94711976	      0.00000000	      0.00000000
     51.81142857	     -6.53947074	     -8.12091745	      0.34834916	      0.95593897	      0.90175908	      0.46713279	     -3.09828131	      5.04888116	    -14.27047405	     12.24404934	     12.24404934	     21.38242643	      5.97256255	     -1.17499505	     37.05738816	    -11.40847349	     -0.20800111	     25.95092040	     25.95092040	      0.85603236	    -14.59775984	      6.17762723	     -9.12920999	      5.77592153	      5.85740412	     48.55948886	    -13.23686924	      3.25861537	    110.62019506	     43.96764048	      0.00000000	      0.00000000	    -24.84403977	     -7.33428264	     10.93883779	     27.18764785	     43.92338995	      0.00000000	      0.00000000
     51.82250000	     -6.59832132	     -7.81575107	      0.28044874	      0.95745920	      0.90126454	      0.46430447	     -2.65601239	      4.27648450	    -13.84296529	     14.18924459	     14.18924459	     21.64551599	      4.83414796	     -1.62012091	     37.04087039	    -11.05697528	     -0.41815489	     27.15543447	     27.15543447	      0.95306558	    -14.99409887	      5.73358152	     -9.01703534	      5.46351165	      5.48927640	     49.15572640	    -12.87908784	      3.60989449	    112.45870028	     43.91787180	      0.00000000	      0.00000000	    -24.98587838	     -7.18224961	     11.21219712	     26.85810396	     43.90400307	      0.00000000	      0.00000000
     51.83357143	     -6.53884934	     -7.55964694	      0.24262479	      0.95886311	      0.90133678	      0.46133824	     -2.21649538	      3.53459563	    -13.45466884	     16.31525912	     16.31525912	     21.61764238	      3.64916555	     -2.27820147	     36.88249710	    -10.73093599	     -0.52138652	     28.34545973	     28.34545973	      1.43024747	    -15.26364007	      5.43045593	     -9.09059550	      5.22104762	      5.29313532	     49.53282574	    -12.85191410	      3.85643531	    114.26519425	     43.87507113	      0.00000000	      0.00000000	    -24.73595363	     -7.09259394	     11.49268387	     26.47535275	     43.89589581	      0.00000000	      0.00000000
     51.84464286	     -6.41606421	     -7.31875186	      0.22064400	      0.96006113	      0.90191685	      0.45826034	     -1.67519800	      2.75221879	    -13.21206039	     18.70606987	     18.70606987	     21.35295649	      2.59620622	     -3.02398229	     36.59322911	    -10.40730264	     -0.61956240	     29.41103051	     29.41103051	      2.13846632	    -15.39423262	      5.18868175	     -9.28883321	      5.02753595	      5.06464357	     49.95294597	    -12.75563560	      3.99083029	    115.71966115	     43.84000208	      0.00000000	      0.00000000	    -24.26920704	     -6.97394661	     11.68935769	     26.21069815	     43.89387650	      0.00000000	      0.00000000
     51.85571429	     -6.41434896	     -7.08336703	      0.19086544	      0.96106968	      0.90270645	      0.45516382	     -0.79799860	      1.98454793	    -12.82322253	     21.36249015	     21.36249015	     20.40344394	      0.94743618	     -4.96293237	     36.35119236	    -10.05704150	     -0.69484226	     30.31238185	     30.31238185	      3.24097216	    -15.39191939	      5.73913649	     -9.36058671	      4.82314288	      5.29495594	     49.45556075	    -13.34902061	      4.11813649	    118.16435055	     43.79577871	      0.00000000	      0.00000000	    -23.23019835	     -6.98644454	     12.15922403	     25.35250369	     43.89923504	      0.00000000	      0.00000000
